<svg version="1.0" xmlns="http://www.w3.org/2000/svg" width="933.333" height="933.333" viewBox="0 0 700 700" preserveAspectRatio="xMidYMid meet">
  <g fill="#000" stroke="none">
    <path d="M345.5 5c-5 1.1-8.6 3.4-18.5 11.9-4.2 3.7-10.5 9-38.5 32.6-14.8 12.5-29.2 24.7-32 27-2.7 2.4-12.9 10.9-22.5 19s-20 16.9-23.1 19.6c-3.1 2.7-6.9 5.9-8.5 7.1-5.7 4.4-11.5 10.3-13.7 13.7l-2.2 3.6.1 117v117l2.2 4.2c7.5 14.4 27.9 14.4 35.4 0l2.2-4.2.1-109.7c0-71.4.4-110 1-110.6.6-.5 5.3-4.4 10.5-8.8 5.2-4.3 14.3-11.9 20.1-16.9 5.8-4.9 12.4-10.4 14.5-12.2 2.1-1.7 4.8-4 5.9-5 1.1-1 4.7-4 8-6.8 3.3-2.7 6.5-5.4 7.1-6 .6-.5 3.3-2.8 5.9-5 2.6-2.2 5.5-4.7 6.5-5.5 1-.8 3.7-3.1 6.1-5.1 2.4-2.1 11.4-9.6 19.9-16.8L347.5 52l2 2.4c1.6 1.8 10.3 11.4 19 21 3 3.3 25 28.2 31 35.1 3.9 4.4 7.2 8.2 7.5 8.5.3.3 3.2 3.6 6.5 7.5 3.3 3.8 6.2 7.2 6.5 7.5.3.3 3.6 4.1 7.4 8.5 3.8 4.4 8 9.3 9.4 11 8.9 10.2 36.3 43 44.7 53.5 5.5 6.9 10.2 12.7 10.5 13 3.4 3.2 43 55.6 43 56.9 0 .5.4 1.1.8 1.3 2.3.9 23.7 35.4 28 45 3.5 7.7 3.5 8.4.5 10.4-8.8 5.8-21.9 11.4-49.3 21.4-30.2 11-35.7 15.3-38.5 30.2-.2 1-.7 5.6-1 10.2-.3 4.7-.7 9.3-.9 10.3-.2 1-.7 4-1 6.8-2.2 15.2-2.3 15.4-8.3 18.5-10.2 5.3-23 12.6-25.4 14.5-6.4 5.2-9.2 14-6.8 21.2.6 2 5.2 9.8 10.1 17.4l8.9 13.8-5 10.3c-7.9 16-13.7 22.6-21.4 24.2-2.4.6-10.5 2.7-65.7 17.5-56.5 15.2-52.9 14-57.6 18.6-2.6 2.5-4.6 5.5-5.3 8-1 3.7-.8 14.8.4 20.5.3 1.4.7 3.6 1 4.9 1.3 6.9 7.1 20.8 12.3 29.6 8.8 14.8 24 32 36.7 41.5 3.3 2.5 6.2 4.8 6.5 5.1 1 1.2 14.7 8.8 20.1 11.2 7.2 3.2 18.4 5.2 24.1 4.3 14.5-2.2 21.3-19.7 12.4-31.9-2.4-3.3-10.9-7.7-14.9-7.7-8.8 0-30.2-15.8-42.7-31.6-6-7.5-14.9-23.8-13.8-25 .4-.4 2.9-1.3 5.5-2 2.7-.7 10.7-2.8 17.8-4.7 84.6-22.6 84.3-22.5 90.7-26.7 14.2-9.4 27.9-30 37.8-57.1 4.8-12.9 4.1-16.9-4.9-30.4-2.8-4.2-5.1-7.9-5.1-8.4s.8-1.1 1.8-1.4c3.4-1.1 16.8-9 19.5-11.6 1.6-1.4 3.5-3.8 4.2-5.2 1.9-3.6 6.7-29.1 8.1-43.4.8-8.3 1.2-9.2 4.6-10.5 1.8-.7 7.4-2.7 12.3-4.5 36.8-13.3 51.9-20.9 62.9-31.3 17.8-17.2 17.1-35-2.6-69.5-18.5-32.3-64.5-93.1-115.3-152.2-3.3-3.9-7.9-9.3-10.2-12-4.3-5.2-5.5-6.6-13.3-15.5-2.6-3-6.6-7.7-8.9-10.4-2.4-2.7-4.8-5.4-5.4-6.1-.7-.7-3-3.4-5.2-6-2.2-2.7-5.1-6-6.5-7.4-1.4-1.4-7.4-8.2-13.5-15.1-6-6.9-12.8-14.5-15.1-17-2.2-2.5-6.9-7.7-10.5-11.6-3.5-3.8-10.4-11.4-15.4-16.8-4.9-5.4-9.2-10.2-9.5-10.6-.9-1.4-8.5-4.9-11.5-5.3-1.6-.2-4.3-.1-6 .3z"/>
    <path d="M274.9 182.8c-5.2 2.1-10.6 8.4-11.5 13.4-2 11.6 1.6 17.8 15 26.3 28.7 18.1 62.9 24.7 95.1 18.4 2.8-.6 6.1-1.3 7.5-1.5 16.9-3.4 46.6-19.4 51.5-27.8 7.5-12.8-.7-29.1-15.2-30-5.6-.4-9.4.7-15.1 4.6-10.8 7.4-23.9 13.1-34.7 15.2-1.6.4-4.1.9-5.5 1.1-4.8 1-21.6.7-28-.5-13.5-2.4-23.8-6.6-36.2-14.6-9.6-6.2-15.9-7.4-22.9-4.6zM134.7 423.4c-7.8 2.3-14.6 10.7-14.7 18.1 0 8.7 3.6 14.1 14 21 34 22.6 75.6 28.1 114.5 15.1 14.3-4.8 34.5-16.3 39.9-22.7 6.8-8 5.6-20.5-2.5-27.3-8.3-7-17.2-6.7-27.9 1-6.2 4.5-19.9 10.8-27.5 12.8-9.2 2.3-12.3 2.7-21.8 3-19 .6-38-5.1-54.6-16.4-8.2-5.5-12.6-6.6-19.4-4.6z"/>
  </g>
</svg>